<svg width="48" height="48" viewBox="0 0 24 24" fill="none" xmlns="http://www.w3.org/2000/svg" aria-hidden="true">
  <title>iOS</title>
  <path d="M16.5 7.5c.7-1.3.6-3-.4-4-1-1-2.7-1.1-4-.4-.5.3-1 .7-1.6.7-.6 0-1.1-.4-1.6-.7-1.3-.7-3-.6-4 .4-1 1-1.1 2.7-.4 4 .4.7 1 1.4 1.6 1.9.6.6 1.3 1 2 1 .6 0 1.2-.2 1.8-.2.6 0 1.2.2 1.8.2.7 0 1.4-.4 2-.9.6-.5 1.3-1.2 1.7-1.9z" stroke="#14B8A6" stroke-width="1.25" stroke-linecap="round" stroke-linejoin="round" fill="none"/>
  <rect x="8" y="12.2" width="8" height="8" rx="2.2" stroke="#14B8A6" stroke-width="1.25" fill="none"/>
</svg>